<?xml version="1.0" encoding="iso-8859-1"?>
<!-- Generator: Adobe Illustrator 19.0.0, SVG Export Plug-In . SVG Version: 6.00 Build 0)  -->
<svg version="1.1" id="Capa_1" xmlns="http://www.w3.org/2000/svg" xmlns:xlink="http://www.w3.org/1999/xlink" x="0px" y="0px"
	 viewBox="0 0 416 416" style="enable-background:new 0 0 416 416;" xml:space="preserve">
<path style="fill:#00FFB0;" d="M280,80v40c0,17.672-14.328,32-32,32H40c-17.672,0-32-14.328-32-32V80c0-17.672,14.328-32,32-32h208
	C265.672,48,280,62.328,280,80z"/>
<g>
	<path style="fill:#000A64;" d="M72.704,115.632h15.152l2.664,11.496h15.152l-16.488-54.12h-17.32l-16.488,54.12h14.656
		L72.704,115.632z M76.2,100.816c1.336-5.16,2.664-11.656,3.832-17.152h0.336c1.336,5.416,2.664,11.992,4,17.152l0.912,3.752h-9.992
		L76.2,100.816z"/>
	<polygon style="fill:#000A64;" points="146.608,115.136 125.128,115.136 125.128,105.48 142.776,105.48 142.776,93.488 
		125.128,93.488 125.128,85 145.776,85 145.776,73.008 110.808,73.008 110.808,127.128 146.608,127.128 	"/>
	<path style="fill:#000A64;" d="M171.384,109.968h6.664c11.328,0,21.648-5.744,21.648-18.984c0-13.648-9.992-17.976-21.648-17.976
		h-20.976v54.12h14.32v-17.16H171.384z M171.384,84.328h6c5.328,0,8.328,1.832,8.328,6.656s-2.664,7.664-8.328,7.664h-6V84.328z"/>
	<rect x="32" y="112" style="fill:#000A64;" width="16" height="16"/>
	<path style="fill:#000A64;" d="M333.656,2.344C332.16,0.84,330.12,0,328,0h-8H120C97.944,0,80,17.944,80,40H40
		C17.944,40,0,57.944,0,80v40c0,22.056,17.944,40,40,40h40v184c0,22.056,17.944,40,40,40h24c4.416,0,8-3.576,8-8s-3.584-8-8-8h-24
		c-13.232,0-24-10.768-24-24V160h152c22.056,0,40-17.944,40-40V80c0-22.056-17.944-40-40-40H96c0-13.232,10.768-24,24-24h192v48
		c0,22.056,17.944,40,40,40h48v240c0,13.232-10.768,24-24,24h-24c-4.416,0-8,3.576-8,8s3.584,8,8,8h24c22.056,0,40-17.944,40-40V96
		v-8c0-2.128-0.84-4.16-2.344-5.656L333.656,2.344z M248,56c13.232,0,24,10.768,24,24v40c0,13.232-10.768,24-24,24H40
		c-13.232,0-24-10.768-24-24V80c0-13.232,10.768-24,24-24H248z"/>
	<path style="fill:#000A64;" d="M296,416c22.056,0,40-17.944,40-40v-80c0-22.056-17.944-40-40-40h-96c-22.056,0-40,17.944-40,40v80
		c0,22.056,17.944,40,40,40H296z M176,376v-80c0-13.232,10.768-24,24-24h96c13.232,0,24,10.768,24,24v80c0,13.232-10.768,24-24,24
		h-96C186.768,400,176,389.232,176,376z"/>
	<polygon style="fill:#000A64;" points="252.568,360.128 248,360.12 229.784,360.064 248,328.184 272,370.184 275.576,376.064 
		293.784,376.064 248,295.936 202.216,376.064 262.128,376.064 	"/>
</g>
<g>
</g>
<g>
</g>
<g>
</g>
<g>
</g>
<g>
</g>
<g>
</g>
<g>
</g>
<g>
</g>
<g>
</g>
<g>
</g>
<g>
</g>
<g>
</g>
<g>
</g>
<g>
</g>
<g>
</g>
</svg>
