<svg id="Flat" height="512" viewBox="0 0 512 512" width="512" xmlns="http://www.w3.org/2000/svg"><rect fill="#9aa3a8" height="368" rx="16" width="192" x="280" y="24"/><path d="m296 352h160a16 16 0 0 1 16 16v24a0 0 0 0 1 0 0h-192a0 0 0 0 1 0 0v-24a16 16 0 0 1 16-16z" fill="#6a7073" transform="matrix(-1 0 0 -1 752 744)"/><circle cx="376" cy="184" fill="#ffd33a" r="48"/><path d="m376 120a64 64 0 1 0 64 64 64.072 64.072 0 0 0 -64-64zm0 112a48 48 0 1 1 48-48 48.051 48.051 0 0 1 -48 48z" fill="#ffb632"/><path d="m392 192a15.974 15.974 0 0 1 -8 13.84v2.16a8 8 0 0 1 -16 0 8 8 0 0 1 0-16h8a15.99 15.99 0 0 1 -8-29.84v-2.16a8 8 0 0 1 16 0 8 8 0 0 1 0 16h-8a16.021 16.021 0 0 1 16 16z" fill="#ffb632"/><rect fill="#9aa3a8" height="368" rx="16" transform="matrix(-1 0 0 -1 272 608)" width="192" x="40" y="120"/><path d="m56 120h160a16 16 0 0 1 16 16v24a0 0 0 0 1 0 0h-192a0 0 0 0 1 0 0v-24a16 16 0 0 1 16-16z" fill="#6a7073"/><circle cx="136" cy="328" fill="#ffd33a" r="48"/><path d="m136 264a64 64 0 1 0 64 64 64.072 64.072 0 0 0 -64-64zm0 112a48 48 0 1 1 48-48 48.051 48.051 0 0 1 -48 48z" fill="#ffb632"/><path d="m152 336a15.974 15.974 0 0 1 -8 13.84v2.16a8 8 0 0 1 -16 0 8 8 0 0 1 0-16h8a15.99 15.99 0 0 1 -8-29.84v-2.16a8 8 0 0 1 16 0 8 8 0 0 1 0 16h-8a16.021 16.021 0 0 1 16 16z" fill="#ffb632"/><path d="m96 456h80a16 16 0 0 1 16 16v16a0 0 0 0 1 0 0h-112a0 0 0 0 1 0 0v-16a16 16 0 0 1 16-16z" fill="#6a7073"/><path d="m280 272v-16h-80v-32h80v-16l40 32z" fill="#3dc285"/><path d="m232 272v16h80v32h-80v16l-40-32z" fill="#3dc285"/><path d="m336 24h80a16 16 0 0 1 16 16v16a0 0 0 0 1 0 0h-112a0 0 0 0 1 0 0v-16a16 16 0 0 1 16-16z" fill="#6a7073" transform="matrix(-1 0 0 -1 752 80)"/><path d="m472 448v-56l16-96-56-72c-2.708-6.093-9.332-8-16-8-16 3-18.342 13.462-16 24l24 72a64 64 0 0 0 -64 64v16h-56v56z" fill="#f0c6a4"/><path d="m296 424h184v64h-184z" fill="#2d85cc"/><path d="m40 64v56l-16 96 56 72c2.708 6.093 9.332 8 16 8 16-3 18.342-13.462 16-24l-24-72a64 64 0 0 0 64-64v-16h56v-56z" fill="#f0c6a4"/><path d="m32 24h184v64h-184z" fill="#eb423f" transform="matrix(-1 0 0 -1 248 112)"/></svg>