<svg id="Capa_1" enable-background="new 0 0 512 512" height="512" viewBox="0 0 512 512" width="512" xmlns="http://www.w3.org/2000/svg" xmlns:xlink="http://www.w3.org/1999/xlink"><linearGradient id="SVGID_1_" gradientUnits="userSpaceOnUse" x1="256" x2="256" y1="512" y2="0"><stop offset="0" stop-color="#5558ff"/><stop offset="1" stop-color="#00c0ff"/></linearGradient><g><g><path d="m241 226v17.58c-17.459 6.192-30 22.865-30 42.42 0 24.813 20.187 45 45 45 8.271 0 15 6.729 15 15s-6.729 15-15 15-15-6.729-15-15c0-8.284-6.716-15-15-15s-15 6.716-15 15c0 19.555 12.541 36.228 30 42.42v17.58c0 8.284 6.716 15 15 15s15-6.716 15-15v-17.58c17.459-6.192 30-22.865 30-42.42 0-24.813-20.187-45-45-45-8.271 0-15-6.729-15-15s6.729-15 15-15 15 6.729 15 15c0 8.284 6.716 15 15 15s15-6.716 15-15c0-19.555-12.541-36.228-30-42.42v-17.58c0-8.284-6.716-15-15-15s-15 6.716-15 15zm204.641-71.492-180-151c-5.576-4.678-13.705-4.678-19.281 0l-180 151c-4.831 4.053-6.611 10.695-4.455 16.621s7.788 9.871 14.095 9.871h72.036l-56.796 313.325c-.793 4.375.396 8.876 3.246 12.29s7.068 5.385 11.514 5.385h300c4.446 0 8.664-1.973 11.514-5.386s4.039-7.915 3.246-12.29l-56.796-313.324h72.036c6.307 0 11.939-3.944 14.096-9.871s.376-12.568-4.455-16.621zm-99.641-3.508c-4.446 0-8.664 1.973-11.514 5.386s-4.039 7.915-3.246 12.29l56.796 313.324h-264.072l56.796-313.325c.793-4.375-.396-8.876-3.246-12.29s-7.068-5.385-11.514-5.385h-48.78l138.78-116.421 138.78 116.421z" fill="url(#SVGID_1_)"/></g></g></svg>