<svg id="_x33_0" enable-background="new 0 0 61.707 62.414" height="512" viewBox="0 0 61.707 62.414" width="512" xmlns="http://www.w3.org/2000/svg"><g><g><g><path d="m8 54.414h-2c-1.103 0-2-.897-2-2v-10c0-1.103.897-2 2-2h2c1.103 0 2 .897 2 2v10c0 1.103-.897 2-2 2z" fill="#f0bc5e"/></g></g><g><g><path d="m42 58.414h-28c-1.103 0-2-.897-2-2v-18c0-1.103.897-2 2-2h28c1.103 0 2 .897 2 2v18c0 1.103-.897 2-2 2z" fill="#f0bc5e"/></g></g><g><path d="m4 48.414h6v2h-6z"/><path d="m4 44.414h6v2h-6z"/><path d="m28 40.414h-10c-1.103 0-2 .897-2 2v10c0 1.103.897 2 2 2h10c1.103 0 2-.897 2-2v-10c0-1.103-.897-2-2-2zm0 5h-1v-3h1zm-4 5v2h-1v-1c0-1.103-.897-2-2-2h-3v-1h4c1.103 0 2-.897 2-2v-4h1v3c0 1.103.897 2 2 2h1.001v1h-2.001c-1.103 0-2 .897-2 2zm-2-8v4h-4v-4zm-4 9h3v1h-3zm8 1v-2h2.001v2z"/><path d="m19 43.414h2v2h-2z"/><circle cx="40" cy="47.414" r="1"/><path d="m36 47.414c0 2.757 2.243 5 5 5h3v-10h-3c-2.757 0-5 2.243-5 5zm6 3h-1c-1.654 0-3-1.346-3-3s1.346-3 3-3h1z"/><path d="m50 56.414h2v2h-2z"/><path d="m54 56.414h2v2h-2z"/><path d="m58 56.414h2v2h-2z"/><path d="m58 48.414c0-1.103-.897-2-2-2v-20.042c1.134-.198 2-1.183 2-2.372 0-.645-.251-1.251-.707-1.707l-18.293-18.293-18.293 18.293c-.456.456-.707 1.062-.707 1.707 0 1.189.866 2.174 2 2.372v6.042h-18c-2.206 0-4 1.794-4 4v22c0 2.206 1.794 4 4 4h40c2.206 0 4-1.794 4-4v-6h8c1.103 0 2-.897 2-2zm-6-2v-20h2v20zm-29.879-22.707 16.879-16.879 16.879 16.879c.077.077.121.184.121.293 0 .229-.186.414-.414.414h-33.172c-.228 0-.414-.185-.414-.414 0-.109.044-.216.121-.293zm15.879 8.707v-6h2v6zm-2-6v6h-8v-6zm-12 0h2v6h-2zm22 32c0 1.103-.897 2-2 2h-40c-1.103 0-2-.897-2-2v-22c0-1.103.897-2 2-2h40c1.103 0 2 .897 2 2zm-2-26h-2v-6h8v20h-2v-10c0-2.206-1.794-4-4-4zm12 18h-8v-2h8z"/><path d="m38 21.23v2.184h2v-2h2v-3c0-1.654-1.346-3-3-3-.551 0-1-.449-1-1v-1h1c.551 0 1 .449 1 1v1h2v-1c0-1.302-.839-2.402-2-2.816v-2.184h-2v2h-2v3c0 1.654 1.346 3 3 3 .551 0 1 .449 1 1v1h-1c-.551 0-1-.449-1-1v-1h-2v1c0 1.302.839 2.402 2 2.816z"/><path d="m39 0-22.707 22.707 1.414 1.414 21.293-21.293 21.293 21.293 1.414-1.414z"/><path d="m15 17.414c0-1.654-1.346-3-3-3s-3 1.346-3 3 1.346 3 3 3 3-1.346 3-3zm-3 1c-.551 0-1-.449-1-1s.449-1 1-1 1 .449 1 1-.449 1-1 1z"/><path d="m16.707 12.707-.586-.586c-1.101-1.101-2.564-1.707-4.121-1.707s-3.021.606-4.121 1.707l-.586.586 1.414 1.414.586-.586c1.446-1.446 3.968-1.446 5.414 0l.586.586z"/><path d="m18.293 11.121 1.414-1.414-.171-.171c-2.013-2.014-4.689-3.122-7.536-3.122s-5.523 1.108-7.536 3.122l-.171.171 1.414 1.414.171-.171c1.636-1.636 3.81-2.536 6.122-2.536s4.486.9 6.122 2.536z"/><path d="m4.171 7.657c2.092-2.091 4.872-3.243 7.829-3.243s5.737 1.152 7.829 3.243l.464.464 1.414-1.414-.464-.464c-2.469-2.469-5.752-3.829-9.243-3.829s-6.774 1.36-9.243 3.829l-.464.464 1.414 1.414z"/><path d="m11 22.414h2v2h-2z"/><path d="m11 26.414h2v2h-2z"/></g></g></svg>