<svg id="Layer_1" enable-background="new 0 0 512 512" height="512" viewBox="0 0 512 512" width="512" xmlns="http://www.w3.org/2000/svg"><g><g><g><path d="m317.635 472h-123.26l8.67-26 11.33-34 41.63-20 12.66 6.08 28.97 13.92z" fill="#b9cfdf"/><path d="m317.635 472h-123.26l8.67-26h68.65c6.37 0 10.86-6.24 8.85-12.28l-11.88-35.64 28.97 13.92z" fill="#90abbd"/></g><path d="m504.5 55.405v341.183c0 8.51-6.91 15.41-15.44 15.41h-466.12c-8.53 0-15.44-6.9-15.44-15.41v-341.183c0-8.51 6.91-15.41 15.44-15.41h466.12c8.53 0 15.44 6.9 15.44 15.41z" fill="#99e7fa"/><path d="m504.5 55.408v341.182c0 8.51-6.91 15.41-15.44 15.41h-466.12c-8.53 0-15.44-6.9-15.44-15.41v-38.18h457.56c8.53 0 15.44-6.9 15.44-15.41v-287.592c0-8.51-6.91-15.41-15.44-15.41h24c8.53 0 15.44 6.9 15.44 15.41z" fill="#4dd4f7"/><path d="m504.501 382v14.59c0 8.51-6.91 15.41-15.44 15.41h-466.12c-8.49 0-15.38-6.84-15.44-15.3v-14.7z" fill="#56788b"/><path d="m504.5 55.408v14.59h-497v-14.59c0-8.51 6.91-15.41 15.44-15.41h466.12c8.53 0 15.44 6.9 15.44 15.41z" fill="#56788b"/><g fill="#415e6f"><path d="m504.5 55.408v14.59h-24v-14.59c0-8.51-6.91-15.41-15.44-15.41h24c8.53 0 15.44 6.9 15.44 15.41z"/><path d="m480.481 382h24.02v14.59c0 8.51-6.91 15.41-15.44 15.41h-466.12c-8.49 0-15.38-6.84-15.44-15.3h457.56c8.29 0 15.06-6.51 15.42-14.7z"/></g></g><g><path d="m49.099 139.034h173.8v173.946h-173.8z" fill="#f9d11f"/><path d="m222.899 139.034v173.946h-173.8v-22.998h127.74c11.08 0 20.06-8.979 20.06-20.058v-130.89z" fill="#ffa402"/><path d="m163.618 219.318-27.622-13.356-27.622 13.356v-80.288h55.244z" fill="#ff4656"/></g><g fill="#ff4656"><circle cx="279.634" cy="160.584" r="14.999"/><circle cx="279.634" cy="226" r="14.999"/><circle cx="279.634" cy="291.416" r="14.999"/></g></g><g><path d="m489.062 32.5h-466.124c-12.648 0-22.938 10.276-22.938 22.908v341.185c0 12.631 10.29 22.907 22.938 22.907h181.021l-15 45h-26.96c-4.143 0-7.5 3.358-7.5 7.5s3.357 7.5 7.5 7.5h188.002c4.143 0 7.5-3.358 7.5-7.5s-3.357-7.5-7.5-7.5h-26.96l-15-45h181.021c12.648 0 22.938-10.276 22.938-22.908v-205.236c0-4.142-3.357-7.5-7.5-7.5s-7.5 3.358-7.5 7.5v183.144h-75.811c-4.143 0-7.5 3.358-7.5 7.5s3.357 7.5 7.5 7.5h75.811v7.092c0 4.36-3.562 7.908-7.938 7.908h-466.124c-4.377 0-7.938-3.547-7.938-7.908v-7.092h370.963c4.143 0 7.5-3.358 7.5-7.5s-3.357-7.5-7.5-7.5h-370.963v-297h74.825c4.143 0 7.5-3.358 7.5-7.5s-3.357-7.5-7.5-7.5h-74.825v-7.092c0-4.36 3.562-7.908 7.938-7.908h466.123c4.377 0 7.938 3.547 7.938 7.908v7.092h-372.709c-4.143 0-7.5 3.358-7.5 7.5s3.357 7.5 7.5 7.5h372.71v78.35c0 4.142 3.357 7.5 7.5 7.5s7.5-3.358 7.5-7.5v-100.442c0-12.632-10.29-22.908-22.938-22.908zm-196.833 387 15 45h-102.458l15-45z"/><path d="m49.101 212.837c-4.143 0-7.5 3.358-7.5 7.5v92.643c0 4.142 3.357 7.5 7.5 7.5h173.799c4.143 0 7.5-3.358 7.5-7.5v-173.96c0-4.142-3.357-7.5-7.5-7.5h-173.799c-4.143 0-7.5 3.358-7.5 7.5v46.472c0 4.142 3.357 7.5 7.5 7.5s7.5-3.358 7.5-7.5v-38.972h44.277v72.795c0 2.582 1.328 4.982 3.515 6.354 2.188 1.372 4.928 1.521 7.25.398l24.357-11.778 24.357 11.778c1.034.5 2.15.748 3.265.748 1.388 0 2.771-.385 3.985-1.146 2.187-1.372 3.515-3.772 3.515-6.354v-72.795h44.277v158.96h-158.798v-85.143c0-4.142-3.358-7.5-7.5-7.5zm107.021-5.48-16.857-8.151c-1.031-.499-2.147-.748-3.265-.748s-2.233.25-3.265.748l-16.857 8.151v-60.837h40.244z"/><path d="m159.353 271.527c4.143 0 7.5-3.358 7.5-7.5s-3.357-7.5-7.5-7.5h-46.705c-4.143 0-7.5 3.358-7.5 7.5s3.357 7.5 7.5 7.5z"/><path d="m279.634 138.083c-12.406 0-22.499 10.093-22.499 22.5s10.093 22.5 22.499 22.5 22.499-10.093 22.499-22.5-10.093-22.5-22.499-22.5zm0 30c-4.135 0-7.499-3.364-7.499-7.5s3.364-7.5 7.499-7.5 7.499 3.364 7.499 7.5-3.364 7.5-7.499 7.5z"/><path d="m464.043 151.992h-135.33c-4.143 0-7.5 3.358-7.5 7.5s3.357 7.5 7.5 7.5h135.33c4.143 0 7.5-3.358 7.5-7.5s-3.357-7.5-7.5-7.5z"/><path d="m279.634 203.5c-12.406 0-22.499 10.093-22.499 22.5s10.093 22.5 22.499 22.5 22.499-10.093 22.499-22.5-10.093-22.5-22.499-22.5zm0 30c-4.135 0-7.499-3.364-7.499-7.5s3.364-7.5 7.499-7.5 7.499 3.364 7.499 7.5-3.364 7.5-7.499 7.5z"/><path d="m464.043 217.408h-135.33c-4.143 0-7.5 3.358-7.5 7.5s3.357 7.5 7.5 7.5h135.33c4.143 0 7.5-3.358 7.5-7.5s-3.357-7.5-7.5-7.5z"/><path d="m279.634 268.917c-12.406 0-22.499 10.093-22.499 22.5s10.093 22.5 22.499 22.5 22.499-10.093 22.499-22.5-10.093-22.5-22.499-22.5zm0 30c-4.135 0-7.499-3.364-7.499-7.5s3.364-7.5 7.499-7.5 7.499 3.364 7.499 7.5-3.364 7.5-7.499 7.5z"/><path d="m464.043 282.824h-135.33c-4.143 0-7.5 3.358-7.5 7.5s3.357 7.5 7.5 7.5h135.33c4.143 0 7.5-3.358 7.5-7.5s-3.357-7.5-7.5-7.5z"/></g></svg>