<?xml version="1.0" encoding="UTF-8"?>
<svg xmlns="http://www.w3.org/2000/svg" xmlns:xlink="http://www.w3.org/1999/xlink" id="Gradient" viewBox="0 0 512 512" width="512" height="512"><defs><linearGradient id="linear-gradient" x1="256" y1="496" x2="256" y2="16" gradientUnits="userSpaceOnUse"><stop offset="0" stop-color="#12bee5"/><stop offset="0.5" stop-color="#c071e9"/><stop offset="1" stop-color="#f24f5a"/></linearGradient></defs><path d="M384,176h-8a15.986,15.986,0,0,1,8,29.835V208a8,8,0,0,1-16,0,8,8,0,0,1,0-16h8a15.986,15.986,0,0,1-8-29.835V160a8,8,0,0,1,16,0,8,8,0,0,1,0,16ZM494.272,291.034a8,8,0,0,1,1.62,6.281L480,392.663V416a8,8,0,0,1,8,8v64a8,8,0,0,1-8,8H296a8,8,0,0,1-8-8V424a8,8,0,0,1,8-8V400a24.028,24.028,0,0,1-24-24V328H240V472a24.028,24.028,0,0,1-24,24H56a24.028,24.028,0,0,1-24-24V238.991L17.728,220.966a8,8,0,0,1-1.62-6.281L32,119.337V96a8,8,0,0,1-8-8V24a8,8,0,0,1,8-8H216a8,8,0,0,1,8,8V88a8,8,0,0,1-8,8v16a24.028,24.028,0,0,1,24,24v80h32V40a24.028,24.028,0,0,1,24-24H456a24.028,24.028,0,0,1,24,24V273.009ZM328,40a8.009,8.009,0,0,0,8,8h80a8.009,8.009,0,0,0,8-8V32H328ZM288,204.155l37,29.6a8,8,0,0,1,0,12.494l-37,29.6V280h24a8,8,0,0,1,8,8v32a8,8,0,0,1-8,8H288v16h71.523a72.2,72.2,0,0,1,53.683-39.192l-19.539-59.294A63.958,63.958,0,1,1,432.652,213.8a25.109,25.109,0,0,1,2.906,3.083L464,252.8V40a8.009,8.009,0,0,0-8-8H440v8a24.028,24.028,0,0,1-24,24H336a24.028,24.028,0,0,1-24-24V32H296a8.009,8.009,0,0,0-8,8ZM376,136a48,48,0,1,0,14.852,93.662,25.086,25.086,0,0,1,27.031-22.2A48.009,48.009,0,0,0,376,136ZM208,232v16h72a8,8,0,0,1,7.976,7.374L307.193,240l-19.217-15.374A8,8,0,0,1,280,232Zm32,40v8h32V264H200a8,8,0,0,1-8-8V224a8,8,0,0,1,8-8h24V168H152.477a72.2,72.2,0,0,1-53.683,39.192l19.539,59.294A63.977,63.977,0,0,1,190.7,294.8L227,265.753A8,8,0,0,1,240,272Zm-104,8a47.8,47.8,0,0,0-14.852,2.338,25.139,25.139,0,0,1-24.963,22.31c-.694,0-1.385-.038-2.075-.1A48,48,0,1,0,136,280Zm80-152H160v8a71.944,71.944,0,0,1-1.8,16H224V136A8.009,8.009,0,0,0,216,128ZM40,80H208V32H40ZM88.987,285.188a9.142,9.142,0,0,0,15.851-8.536L80.4,202.5A8,8,0,0,1,88,192a56.063,56.063,0,0,0,56-56V120a8,8,0,0,1,8-8h48V96H48v24a8.045,8.045,0,0,1-.108,1.315l-15.417,92.5ZM184,472a8.009,8.009,0,0,0-8-8H96a8.009,8.009,0,0,0-8,8v8h96Zm40-132.155-24.485-19.587A63.991,63.991,0,1,1,79.346,298.207a25.131,25.131,0,0,1-2.9-3.087L48,259.2V472a8.009,8.009,0,0,0,8,8H72v-8a24.028,24.028,0,0,1,24-24h80a24.028,24.028,0,0,1,24,24v8h16a8.009,8.009,0,0,0,8-8ZM304,312V296H232a8,8,0,0,1-7.976-7.374L204.807,304l19.217,15.374A8,8,0,0,1,232,312Zm-8,72h56v-8a71.944,71.944,0,0,1,1.8-16H288v16A8.009,8.009,0,0,0,296,384Zm176,48H304v48H472Zm7.525-133.815-56.512-71.373a9.142,9.142,0,0,0-15.851,8.536L431.6,309.5A8,8,0,0,1,424,320a56.063,56.063,0,0,0-56,56v16a8,8,0,0,1-8,8H312v16H464V392a8.045,8.045,0,0,1,.108-1.315ZM152,312a8,8,0,0,0-8-8,8,8,0,0,0-16,0v2.165A15.986,15.986,0,0,0,136,336h-8a8,8,0,0,0,0,16,8,8,0,0,0,16,0v-2.165A15.986,15.986,0,0,0,136,320h8A8,8,0,0,0,152,312Z" style="fill:url(#linear-gradient)"/></svg>
